<?xml version="1.0" encoding="utf-8"?>
<!DOCTYPE svg PUBLIC "-//W3C//DTD SVG 20010904//EN" "http://www.w3.org/TR/2001/REC-SVG-20010904/DTD/svg10.dtd">
<svg version="1.0" xmlns="http://www.w3.org/2000/svg" width="5000px" height="5000px" viewBox="0 0 5000 5000" preserveAspectRatio="xMidYMid meet">
 <g fill="#ffffff">
  <path d="M2775 4040 c-24 -1 -52.3 -3 -62.5 -4.5 -10.3 -1.5 -31 -4.5 -46.3 -6.5 -15 -2.3 -33.8 -5 -41.3 -6.5 -7.5 -1.3 -27.8 -4.8 -45 -7.5 -30.8 -5 -39 -6.8 -103.8 -22.8 -31.8 -7.8 -103.8 -31 -146.3 -47.3 -33.3 -12.5 -60.3 -22.5 -73.8 -27.5 -12 -4.5 -30.3 -12.8 -103.8 -48 -17.3 -8.3 -36.3 -17.3 -42.5 -20.3 -27 -12.8 -143.8 -85 -176.3 -109 -6.8 -5.3 -23.8 -17.8 -37.5 -27.8 -13.8 -10.3 -25.5 -19 -26.3 -19.8 -0.8 -1 -7.5 -6.5 -15 -12.8 -7.5 -6.3 -16 -13.3 -18.8 -15.8 -2.8 -2.5 -9.8 -8.3 -15.5 -12.5 -23.5 -17.8 -150.3 -148.5 -179.8 -185.5 -59.8 -74.8 -119.5 -157.3 -128 -176.8 l-3 -7 90.8 -0.3 c96.3 0 195.3 -3 240.5 -7 15.3 -1.3 42.3 -3.5 60 -5 18 -1.5 47.3 -3.8 65 -5.3 18 -1.5 46.5 -3.8 63.8 -5 17.3 -1.3 36.3 -3 42.5 -3.8 l11.3 -1.5 13.8 18.3 c15.3 20.3 81.3 87.5 102.5 104.8 7.5 6 17.5 14.5 22.5 18.8 4.8 4.3 23.5 19.3 41.3 33.5 18 14 36.5 28.8 41.3 32.5 4.8 3.8 17.8 14 28.8 22.8 11 8.8 34 24.5 51.3 35 17.3 10.3 40.5 24.8 52 31.8 11.5 7.3 21.3 13 22 13 0.5 0 9.3 5 19.3 11 17.3 10.5 47 26 68 35.3 5.5 2.5 21.8 10.3 36.3 17 14.5 6.8 30.8 14.3 36.3 16.8 12.8 5.8 47.3 18.3 79.8 28.8 14 4.5 33.3 11 42.8 14.5 30 10.8 110.3 31.8 140 36.8 22.5 4 57 10 86.3 15.5 27.5 5.3 35.3 5.3 170 5 162 -0.8 183 -2.3 268.3 -19 30.5 -6 70.3 -14 88 -17.5 69.5 -13.8 68.5 -13.5 131.3 -35.3 46 -16 71 -25.8 90.8 -34.8 10.5 -5 19.8 -9 20.3 -9 3.8 0 124 -59 146.8 -71.8 37.8 -21.8 137.3 -88.3 187.3 -125.5 38.5 -28.8 169.3 -158.8 200.3 -199 3.3 -4.3 6.5 -8 7.3 -8.8 5.8 -5.5 38 -50.8 69.3 -97.5 34.3 -50.8 50.8 -79 58.3 -98.8 1.5 -3.8 3.3 -6.3 4 -5.8 1.5 1.5 -7 29.8 -14 47 -9.8 24.3 -44.8 97.5 -49.8 104.5 -2.8 4.3 -5.3 8.3 -5.3 9 0 0.8 -3.5 7.3 -8 14.5 -4.3 7.3 -12 20.5 -17 29.5 -37 65.5 -72 123 -77.5 127.5 -1 0.8 -6.5 8.5 -12.5 17.3 -5.8 8.8 -12.3 17.8 -14 20 -1.8 2.3 -10.8 13.5 -20 25.3 -9.5 11.8 -17.5 21.8 -18.5 22.5 -1.3 1.3 -45.5 53.8 -60 71.3 -16.8 20.3 -119.5 120.3 -155 150.5 -38 32.5 -176 128 -230 159 -33.5 19.3 -108.5 57.8 -141.3 72.3 -8.3 3.8 -22.3 10 -31.3 14 -9 4 -22.5 9.5 -30 12.3 -7.5 3 -25.5 10 -40 15.5 -20.8 8.3 -110.8 35.8 -182.5 55.5 -4.8 1.5 -12.8 3.8 -17.5 5 -20.8 6 -34.8 9.3 -83.8 20 -16.8 3.5 -93.3 14.3 -123.8 17.3 -15.8 1.5 -37.8 4 -48.8 5.3 -26.8 3.3 -198.8 4.8 -253.8 2.3z"/>
  <path d="M1332.5 3226 c-50.8 -1.3 -143 -6 -166.3 -8.5 -72.5 -8 -124.8 -14 -152.5 -17.5 -11 -1.5 -29 -3.8 -40 -5.3 -10.8 -1.5 -32.3 -4.8 -47.5 -7.5 -15 -2.8 -40.5 -7.3 -56.3 -10 -40 -7 -88.5 -17 -105 -21.3 -7.5 -2.3 -23.8 -6.5 -36.3 -9.8 -42.5 -11.3 -50 -13.3 -68.8 -19.5 -10.3 -3.5 -31 -10 -46.3 -14.3 -42 -12 -70.8 -21.8 -92.5 -31.3 -4 -2 -13.5 -5.8 -21 -8.8 -7.5 -2.8 -16.5 -7.3 -20 -9.8 -3.5 -2.5 -26.3 -14 -50.3 -25.8 -37 -18.3 -80.5 -43.5 -85 -49.3 -0.8 -1 -5.3 -4.5 -10 -7.8 -4.8 -3.3 -15.3 -12 -23 -19.5 -7.8 -7.5 -16.5 -15.3 -19.5 -17.3 -6.5 -4.5 -38.8 -41.5 -48.3 -55.3 -9.8 -14 -28.3 -59.3 -33 -81.3 -6.5 -29.5 -9 -61 -6.3 -80.8 9.3 -67.8 58 -140.3 145 -216 10.3 -9 19.3 -16.8 20 -17.5 0.8 -0.8 6.3 -5.3 12.5 -10 6.3 -4.8 12.8 -10 14.5 -11.8 6.5 -6.3 104.5 -70 126.8 -82.5 12.5 -6.8 40 -21.5 61.3 -32.5 21.3 -11 41 -21.3 43.8 -22.8 9 -5.3 72 -34.5 95 -44 12.5 -5.3 27.3 -11.8 33 -14.3 6 -2.5 11.8 -4.8 12.8 -4.8 1.3 0 28.5 -10.8 60.8 -24 69.5 -28.3 105 -41.5 137.3 -51 13 -4 35 -10.5 48.8 -15 13.8 -4.3 31.8 -10 40 -12.5 8.3 -2.5 24.5 -7.5 36.3 -11.3 11.8 -3.5 28.5 -8.5 37.5 -11 20 -5.8 48.5 -14 70 -20.3 35 -10.3 136.5 -34 140.5 -33 0.8 0.3 2.3 -3.3 3.3 -7.8 4.3 -21.8 24.8 -83.5 39.3 -119.3 35.3 -87 37.5 -92 60 -137.5 59.3 -118.8 130.5 -223.3 234.3 -342.8 16 -18.3 112.3 -115.3 126.5 -127.3 4.3 -3.5 11.5 -9.5 16.3 -13.5 4.8 -4 17 -14.5 27 -23.8 34 -30.5 152.3 -109.8 232 -155.3 4.3 -2.5 18.8 -10.3 32.5 -17.5 13.5 -7.3 34.3 -18.3 45.8 -24.3 11.5 -6 26 -13.3 32.5 -15.8 6.3 -2.5 18.8 -8 27.8 -12 9 -4.3 28.8 -12.8 43.8 -19 15.3 -6.5 29.8 -12.8 32.5 -14 32 -15 114.3 -40.8 216.5 -67.3 32.5 -8.5 54.5 -12.5 114.8 -21.3 52.5 -7.8 61.8 -9 90 -11.5 15.8 -1.5 39 -3.8 51.8 -5 30.3 -3.3 200.3 -3.3 248.8 0 49.5 3.5 66 5.5 143.3 17.5 67 10.8 93 15.3 108.8 19.8 9 2.5 25.8 7.3 37.5 10.3 33 8.8 49 13.8 117.5 36.3 62.8 20.5 80.8 27 101 36.3 5.8 2.5 19.3 8.3 30.3 12.5 34.5 13.8 141.8 68 172.5 87.3 8.3 5.3 23 14.3 32.5 20.3 41.8 25.8 112.5 73.5 128.8 86.8 2 1.8 19.8 15.5 39.3 30.3 19.8 15 41 32.3 47.8 38.3 6.5 6 24.8 22.8 40.5 37.3 30.8 28 110.3 108 108.8 109.5 -0.5 0.5 -4.8 -2.5 -9.3 -6.8 -4.5 -4.5 -21.8 -18.3 -38.3 -30.8 -16.5 -12.8 -30.5 -23.5 -31.3 -24.3 -1.8 -2 -17 -13.8 -47.5 -36.5 -34.5 -26 -75.3 -53.5 -96.5 -65 -9.5 -5.3 -22.8 -12.5 -29.8 -16.3 -32.3 -17.8 -96.8 -49.8 -112.5 -56 -9.5 -3.8 -20.8 -8.3 -25 -10 -27 -11.5 -36 -15 -75 -29.5 -25 -9.3 -82 -26.5 -131.3 -39.5 -11.8 -3 -28.5 -7.8 -37.5 -10 -9 -2.5 -30.8 -7 -48.8 -10 -17.8 -3 -36.5 -6.3 -41.3 -7.5 -33 -8.3 -121 -16.5 -196.5 -18.5 -81.8 -2.3 -206.5 6.8 -286.5 21 -8 1.3 -20.5 3.5 -27.5 4.8 -12 2.3 -32.3 6.5 -102.5 22.8 -11.8 2.8 -26.5 6.5 -32.5 8.5 -6 2 -22.5 7 -37 11.5 -26.8 8 -34.5 10.8 -72.5 25 -49.3 18.8 -117.3 50 -158.8 73.3 -8.3 4.8 -20.5 11.8 -27.5 15.5 -27.5 15.5 -76.5 45.5 -100 61.5 -27.3 18.5 -66.8 47 -68.8 49.5 -0.8 0.8 -13 11 -27.5 22.8 -14.5 11.5 -26.8 21.8 -27.5 22.5 -0.8 0.8 -9.8 8.5 -20 17.3 -23.3 19.8 -113 110.8 -132.5 134 -18.8 22.3 -37.5 46.5 -45 57.5 -4.8 7 -9.3 13 -10 13.8 -1 0.8 -6.5 8.5 -12.5 17.5 -6 9 -11.5 16.8 -12.3 17.5 -4.5 3.8 -51.5 75 -65.5 99 -14.5 24.5 -39.5 74.5 -52.3 103.5 -4.5 10.3 -10.5 24.5 -13.8 31.3 -30.3 67.8 -59.3 173 -76 276.3 -14 87.5 -15.3 101.5 -15.3 180.8 0 74 2.8 120.8 8.8 156.5 2 11.5 3.8 26 3.8 32.5 0 12.5 11.3 69.8 19.8 100.3 3 10.3 9.3 34.5 14.3 53.8 4.8 19.3 10.3 40.8 12.3 47.5 5.3 20.3 21.3 63.5 30.5 83.8 4.8 10.3 10.8 23.8 13.3 30 11.8 29.3 41 89.3 62.3 127.3 l11.5 21 93.8 -1.5 c51.5 -1 116.3 -3.5 143.8 -5.5 27.5 -2.3 66.3 -5 86.3 -6.3 37 -2.3 67.5 -5 110 -10 13 -1.5 32.8 -3.8 43.8 -5 64.8 -7 97.3 -11 136.3 -16.5 67.3 -9.8 94.3 -14 125 -19.5 11.8 -2 44.3 -7.8 72.5 -12.5 68.5 -11.8 105.3 -19 165 -33 21 -4.8 36.3 -8.3 48.8 -11 27.5 -6.3 74.8 -17 91.3 -21.3 16.8 -4.3 35.3 -9.3 113.8 -31 61.3 -16.8 93.3 -26.5 121.3 -36.8 13 -5 36.3 -13.3 51.3 -18.8 33.8 -12.5 85.3 -32.8 125 -49.8 16.5 -7 40.3 -16.8 52.5 -21.8 23.3 -9.5 117 -56 159 -79 31.3 -17.3 105 -66.5 114.8 -76.8 0.8 -0.8 4.5 -4 8.5 -7.5 14.5 -12.8 1.3 3.8 -19.5 24.3 -26.8 26.3 -43 39.8 -86.5 71.8 -20 14.8 -38 28.3 -40 29.8 -28.8 22.3 -166.8 97.5 -236.3 128.5 -9.5 4.3 -28.8 13 -42.5 19.5 -43.3 20.3 -60.3 27 -120 48.8 -19.3 7 -42.3 15.5 -51 19 -18 7 -67.8 23.5 -159 53 -57.8 18.5 -86.8 27 -151.8 44 -13.5 3.5 -35 9.3 -47.5 12.8 -26.5 7 -103.5 24.5 -159.5 36.3 -13 2.8 -33.8 7.3 -46.3 9.8 -65 14.3 -114.8 23.8 -169.3 32.5 -55 9 -92.5 15 -112 17.8 -10.3 1.5 -27.3 4.5 -37.5 6.5 -10.3 2 -28.3 4.5 -40 6 -11.8 1.3 -30.5 3.5 -41.8 5 -61.5 7.5 -88.5 10.8 -134.5 15 -13.8 1.5 -36.5 3.8 -50.5 5 -14.3 1.5 -37.8 3.8 -52.5 5 -14.8 1.5 -39.8 3.8 -55.8 5 -15.8 1.5 -42.8 4.3 -60 6.3 -17.3 2 -51 3.8 -75 3.8 -24 0 -68.5 1 -98.8 2.5 -56 2.3 -346.3 4.8 -398.8 3.5z m52 -196.5 c-2.8 -7.3 -7.8 -20.5 -11.3 -29.5 -3.5 -9 -8.3 -23 -10.8 -31.3 -2.5 -8.3 -6.8 -21.8 -9.5 -30 -17.8 -54.8 -33.3 -119.8 -44 -186.3 -24.3 -150.5 -27.8 -214.8 -20.3 -353.8 4 -73.3 6.3 -95.8 12.3 -129.8 2.3 -12.3 3.8 -22.8 3.3 -23.3 -1 -0.8 -52.5 20.5 -86.8 36 -9 4 -25.3 11.3 -36.3 15.8 -19.3 8.3 -99.3 48.3 -130 65 -25.5 14 -118.3 76.5 -126.3 85 -0.8 0.8 -6.3 5.3 -12.5 10 -6.3 4.8 -15.3 12.3 -20 16.8 -4.8 4.5 -9.5 8.3 -10.5 8.3 -4.5 0 -60 64.8 -75 87 -32.5 49.3 -42 76.8 -42 120.8 0 27.8 4.5 44 19.8 72 5.8 10.3 10.3 18.8 10.3 19.3 0 4.8 21.3 30.3 43.5 52.3 47.8 47.3 124.3 92.8 207.8 123.8 19.3 7 40.8 15 47.5 17.5 10.5 4 40 13 72.5 22.5 53.8 15.8 136.8 33.3 188.8 39.8 26.8 3.5 33.8 4.5 34.3 5 0.3 0 -2 -5.8 -4.8 -12.8z"/>
  <path d="M4123.5 2652 c-1.3 -1.8 -6.5 -11.8 -11.5 -22 l-9.3 -18.8 6.8 -7.5 c3.8 -4 8.5 -9 10.5 -11.3 2 -2 14.5 -15.5 27.5 -29.8 13 -14.5 28 -30.8 33.3 -36.3 14.3 -15.8 13.3 -17 -14.8 -16.3 l-24 0.8 -8.8 -16.3 c-4.8 -8.8 -11.8 -21.5 -15.5 -28.5 -4 -6.8 -11.3 -20.3 -16.5 -30 -5.3 -9.5 -12.8 -23.3 -16.8 -30.3 l-7 -12.8 13.8 -19 c14 -19.3 15.8 -22.8 11.3 -25.5 -1.3 -0.8 -19 0.8 -39.3 3.5 -33.5 4.8 -96.3 10.8 -97.3 9.5 -0.3 -0.3 -5.3 -9.3 -11 -20 l-10.8 -19.8 6 -5.5 c3.3 -2.8 21.3 -17 39.8 -31.5 18.5 -14.3 34.3 -26.8 35 -27.8 4 -4.5 56 -42.3 58.8 -42.3 2.8 0 17.8 2.8 67.5 12.3 7 1.5 25 5 40.5 7.8 l28 5.5 19 -13.5 c41.8 -29 106.8 -68.3 145 -87 27.3 -13.3 51.5 -22 113.5 -41 60 -18.5 189.3 -25.8 245 -14 13.8 2.8 31.5 7.8 39.5 11 13.5 5.5 14.5 6.5 13.8 13.3 -1.3 8.3 -8.3 25.5 -25.8 62.8 -28 59 -59.8 99.8 -117.3 150.5 -11.8 10.3 -21.8 19.3 -22.5 20 -6.3 6.8 -54.3 40.3 -75 52.8 -67 39.8 -84.3 47.3 -166.3 74 -19.3 6.3 -36.3 12.5 -38 14.3 -1.5 1.5 -11.5 22 -22 45.3 -10.3 23.5 -23 50.8 -28.3 61 l-9.3 18.5 -30 8.5 c-16.5 4.5 -35.5 10 -42.5 12 -6.8 1.8 -29.3 8.3 -50 14 -20.5 5.8 -38.8 11 -40.3 11.5 -1.8 0.5 -4 -0.5 -5 -2.3z m398 -325 c29.3 -14.5 42 -35.8 42 -69.5 0 -24.3 -5.3 -39 -18 -50.5 -24 -21.5 -47.3 -29.3 -72.5 -24.3 -41.5 7.8 -68.5 40 -69 82.3 0 16.3 0.8 20 6.8 29.5 10.3 15.8 19.5 24.8 34.5 33 12.3 6.8 15.8 7.5 36.8 7.5 21.5 0 24.8 -0.8 39.5 -8z"/>
  <path d="M3991.5 2593 c1.3 -1.3 8.5 -7 16 -13 27.8 -21.8 33.3 -33.5 10.8 -22.8 -19.8 9.5 -43.5 16.8 -65.8 20.3 -10.3 1.8 -24.3 4 -30.8 5.3 -6.5 1.3 -16 2.3 -20.8 2.3 l-8.8 0 6.8 -11.8 c15 -25.8 31.3 -47.5 43.3 -57.8 20.3 -17.3 15.5 -23.8 -8.3 -11.8 -6.8 3.5 -12.8 5.8 -13.5 5.3 -0.5 -0.8 2.3 -6 6.5 -12 12 -17.3 33.3 -34.8 48.5 -40 9.8 -3.3 17 -9 17 -13.8 0 -2.3 -4 -3.3 -14.3 -3.3 l-14.5 -0.3 13.8 -8.8 c7.5 -4.8 18.5 -11 24.5 -13.8 11.5 -5.3 50.3 -11.3 53 -8 1 1 8.5 15 16.8 30.8 25.3 48.5 41.3 78.5 44.5 83.8 2.8 4.8 2 6.5 -8.3 17.3 -6 6.5 -16.5 15.8 -23 20.3 -13.3 9.3 -50.3 24 -75.8 29.8 -19.5 4.5 -21 4.8 -17.8 2z"/>
 </g>
</svg>